# This file uses centimeters as units for non-parametric coordinates.

mtllib Bush.mtl
g default
v -2.141924 0.032673 0.796096
v -0.000000 0.032673 1.264126
v 2.115860 0.032673 0.796096
v -2.849977 2.032162 1.221426
v 0.000000 2.032162 1.805552
v 2.849977 2.032162 1.221427
v -2.141924 3.648435 0.796096
v -0.000000 4.031652 1.264126
v 2.115861 3.648435 0.796097
v -2.863467 3.919870 0.000000
v 0.000000 4.529423 0.000000
v 2.863467 3.919870 0.000000
v -2.863467 0.032673 0.000000
v 0.000000 0.032673 0.000000
v 2.863467 0.032673 0.000000
v 3.854204 2.032163 0.000000
v -3.854204 2.032163 0.000000
v -2.141924 0.032673 -0.796096
v -0.000000 0.032673 -1.264126
v 2.115860 0.032673 -0.796096
v -2.849977 2.032162 -1.221426
v 0.000000 2.032162 -1.805552
v 2.849977 2.032162 -1.221427
v -2.141924 3.648435 -0.796096
v -0.000000 4.031652 -1.264126
v 2.115861 3.648435 -0.796097
vt 0.690033 0.573812
vt 0.514462 0.585189
vt 0.516067 0.500175
vt 0.764886 0.505097
vt 0.341448 0.567173
vt 0.267409 0.495257
vt 0.692809 0.433476
vt 0.517825 0.415164
vt 0.344234 0.426324
vt 0.794228 0.102636
vt 0.526400 0.013543
vt 0.509015 0.881114
vt 0.689678 0.877770
vt 0.704475 0.129742
vt 0.524085 0.119255
vt 0.255035 0.091377
vt 0.330640 0.871536
vt 0.345471 0.121772
vt 0.511769 0.726753
vt 0.741038 0.709622
vt 0.283542 0.701003
vt 0.869755 0.313850
vt 0.170601 0.299328
vt 0.749145 0.299789
vt 0.520733 0.273604
vt 0.291665 0.290308
vt 0.507147 0.986835
vt 0.778288 0.908405
vt 0.239073 0.898331
vt 0.862110 0.700343
vt 0.162929 0.687204
vn -0.300490 -0.630752 0.715442
vn 0.000035 -0.570993 0.820955
vn -0.000000 -0.000000 1.000000
vn -0.450832 -0.003488 0.892602
vn 0.298886 -0.631691 0.715286
vn 0.452436 -0.003547 0.891790
vn -0.000114 0.568653 0.822577
vn -0.340067 0.550885 0.762155
vn 0.338738 0.551245 0.762486
vn 0.000000 1.000000 0.000000
vn -0.645524 0.763740 0.000000
vn 0.648184 0.761484 0.000000
vn -0.684021 -0.729462 0.000000
vn -0.000000 -1.000000 0.000000
vn 0.687122 -0.726542 0.000000
vn 0.999995 -0.003026 0.000000
vn -0.999995 -0.002980 -0.000000
vn -0.300490 -0.630752 -0.715442
vn -0.450832 -0.003488 -0.892602
vn -0.000000 -0.000000 -1.000000
vn 0.000035 -0.570993 -0.820955
vn 0.452436 -0.003547 -0.891790
vn 0.298886 -0.631691 -0.715286
vn -0.340067 0.550885 -0.762155
vn -0.000114 0.568653 -0.822577
vn 0.338737 0.551245 -0.762486
s 1
g pCube1
usemtl lambert2SG
f 1/13/1 2/12/2 5/19/3 4/20/4
f 2/12/2 3/17/5 6/21/6 5/19/3
f 4/20/4 5/19/3 8/2/7 7/1/8
f 5/19/3 6/21/6 9/5/9 8/2/7
f 7/1/8 8/2/7 11/3/10 10/4/11
f 8/2/7 9/5/9 12/6/12 11/3/10
f 13/28/13 14/27/14 2/12/2 1/13/1
f 14/27/14 15/29/15 3/17/5 2/12/2
f 3/17/5 15/29/15 16/31/16 6/21/6
f 6/21/6 16/31/16 12/6/12 9/5/9
f 13/28/13 1/13/1 4/20/4 17/30/17
f 17/30/17 4/20/4 7/1/8 10/4/11
f 18/14/18 21/24/19 22/25/20 19/15/21
f 19/15/21 22/25/20 23/26/22 20/18/23
f 21/24/19 24/7/24 25/8/25 22/25/20
f 22/25/20 25/8/25 26/9/26 23/26/22
f 24/7/24 10/4/11 11/3/10 25/8/25
f 25/8/25 11/3/10 12/6/12 26/9/26
f 13/10/13 18/14/18 19/15/21 14/11/14
f 14/11/14 19/15/21 20/18/23 15/16/15
f 20/18/23 23/26/22 16/23/16 15/16/15
f 23/26/22 26/9/26 12/6/12 16/23/16
f 13/10/13 17/22/17 21/24/19 18/14/18
f 17/22/17 10/4/11 24/7/24 21/24/19
