# This file uses centimeters as units for non-parametric coordinates.

mtllib Cactus 1.mtl
g default
v 0.650393 -0.197322 -0.978530
v -0.650393 -0.197322 -0.978530
v -1.300786 -0.197322 0.147983
v -0.650393 -0.197322 1.274496
v 0.650393 -0.197322 1.274497
v 1.300786 -0.197322 0.147983
v 0.373664 6.803636 -0.499222
v -0.373664 6.803636 -0.499222
v -0.747328 6.803636 0.147983
v -0.373664 6.803636 0.795189
v 0.373664 6.803636 0.795189
v 0.747328 6.803636 0.147983
v 0.000000 -0.197322 0.147983
v 0.000000 7.179729 0.147983
v 0.500000 6.105350 -0.718042
v -0.500000 6.105350 -0.718042
v -1.000000 6.105350 0.147983
v -0.500000 6.105350 1.014009
v 0.500000 6.105350 1.014009
v 1.000000 6.105350 0.147983
v 0.500000 1.163620 -0.718042
v -0.500000 1.163620 -0.718042
v -1.000000 1.163620 0.147983
v -0.500000 1.163620 1.014009
v 0.500000 1.163620 1.014009
v 1.000000 1.163620 0.147983
vt 0.578125 0.020934
vt 0.421875 0.020934
vt 0.343750 0.156250
vt 0.421875 0.291566
vt 0.578125 0.291566
vt 0.656250 0.156250
vt 0.375000 0.312500
vt 0.416667 0.312500
vt 0.458333 0.312500
vt 0.500000 0.312500
vt 0.541667 0.312500
vt 0.583333 0.312500
vt 0.625000 0.312500
vt 0.375000 0.688440
vt 0.416667 0.688440
vt 0.458333 0.688440
vt 0.500000 0.688440
vt 0.541667 0.688440
vt 0.583333 0.688440
vt 0.625000 0.688440
vt 0.578125 0.708434
vt 0.421875 0.708434
vt 0.343750 0.843750
vt 0.421875 0.979066
vt 0.578125 0.979066
vt 0.656250 0.843750
vt 0.500000 0.150000
vt 0.500000 0.837500
vt 0.625000 0.629517
vt 0.375000 0.629517
vt 0.416667 0.629517
vt 0.458333 0.629517
vt 0.500000 0.629517
vt 0.541667 0.629517
vt 0.583333 0.629517
vt 0.625000 0.380954
vt 0.375000 0.380954
vt 0.416667 0.380954
vt 0.458333 0.380954
vt 0.500000 0.380954
vt 0.541667 0.380954
vt 0.583333 0.380954
vn 0.499773 0.030149 -0.865632
vn -0.499773 0.030149 -0.865632
vn -0.440180 0.474306 -0.762414
vn 0.440180 0.474306 -0.762414
vn -0.999545 0.030149 -0.000000
vn -0.880360 0.474306 -0.000000
vn -0.499773 0.030149 0.865632
vn -0.440180 0.474306 0.762414
vn 0.499773 0.030149 0.865632
vn 0.440180 0.474306 0.762414
vn 0.999545 0.030149 0.000000
vn 0.880360 0.474306 0.000000
vn -0.486970 -0.226803 -0.843457
vn 0.486970 -0.226803 -0.843457
vn 0.000000 -1.000000 -0.000000
vn -0.973941 -0.226803 -0.000000
vn -0.486970 -0.226803 0.843457
vn 0.486970 -0.226803 0.843457
vn 0.973941 -0.226803 0.000000
vn -0.000000 1.000000 0.000000
vn 0.499069 0.060997 -0.864413
vn -0.499069 0.060997 -0.864413
vn -0.998138 0.060997 -0.000000
vn -0.499069 0.060997 0.864413
vn 0.499069 0.060997 0.864413
vn 0.998138 0.060997 0.000000
s 1
g pCylinder2
usemtl initialShadingGroup
f 15/30/1 16/31/2 8/15/3 7/14/4
f 16/31/2 17/32/5 9/16/6 8/15/3
f 17/32/5 18/33/7 10/17/8 9/16/6
f 18/33/7 19/34/9 11/18/10 10/17/8
f 19/34/9 20/35/11 12/19/12 11/18/10
f 20/35/11 15/29/1 7/20/4 12/19/12
f 2/2/13 1/1/14 13/27/15
f 3/3/16 2/2/13 13/27/15
f 4/4/17 3/3/16 13/27/15
f 5/5/18 4/4/17 13/27/15
f 6/6/19 5/5/18 13/27/15
f 1/1/14 6/6/19 13/27/15
f 7/25/4 8/24/3 14/28/20
f 8/24/3 9/23/6 14/28/20
f 9/23/6 10/22/8 14/28/20
f 10/22/8 11/21/10 14/28/20
f 11/21/10 12/26/12 14/28/20
f 12/26/12 7/25/4 14/28/20
f 21/37/21 22/38/22 16/31/2 15/30/1
f 22/38/22 23/39/23 17/32/5 16/31/2
f 23/39/23 24/40/24 18/33/7 17/32/5
f 24/40/24 25/41/25 19/34/9 18/33/7
f 25/41/25 26/42/26 20/35/11 19/34/9
f 26/42/26 21/36/21 15/29/1 20/35/11
f 1/7/14 2/8/13 22/38/22 21/37/21
f 2/8/13 3/9/16 23/39/23 22/38/22
f 3/9/16 4/10/17 24/40/24 23/39/23
f 4/10/17 5/11/18 25/41/25 24/40/24
f 5/11/18 6/12/19 26/42/26 25/41/25
f 6/12/19 1/13/14 21/36/21 26/42/26
g default
v 1.184765 4.049788 -0.442085
v 1.074865 3.397452 -0.442085
v 1.019915 3.071283 0.130815
v 1.074865 3.397451 0.703716
v 1.184765 4.049788 0.703716
v 1.239715 4.375956 0.130815
v -1.432613 4.355888 -0.444787
v -1.543031 3.700476 -0.444787
v -1.598240 3.372770 0.130815
v -1.543031 3.700476 0.706417
v -1.432613 4.355888 0.706417
v -1.377404 4.683594 0.130815
v 1.607667 4.094500 -0.482233
v 1.730547 3.397359 -0.482233
v 1.791988 3.048789 0.130815
v 1.730548 3.397359 0.743864
v 1.607667 4.094500 0.743864
v 1.546226 4.443070 0.130815
v 1.713792 4.191465 -0.444540
v 1.936257 3.565455 -0.444540
v 2.047490 3.252450 0.130815
v 1.936257 3.565455 0.706171
v 1.713792 4.191465 0.706171
v 1.602560 4.504469 0.130815
v 1.876883 4.473504 -0.403596
v 2.326131 4.050455 -0.403596
v 2.550757 3.838932 0.130815
v 2.326132 4.050456 0.665227
v 1.876883 4.473504 0.665227
v 1.652259 4.685028 0.130815
v 1.938168 4.990735 -0.315599
v 2.425931 4.637346 -0.315599
v 2.613569 4.460651 0.130815
v 2.425931 4.637345 0.577230
v 1.949581 4.990734 0.577230
v 1.714159 5.167429 0.130815
v 1.980686 5.602523 -0.315599
v 2.495899 5.586065 -0.315599
v 2.753506 5.577836 0.130815
v 2.495900 5.586065 0.577230
v 1.980687 5.602523 0.577230
v 1.723080 5.610751 0.130815
v 2.069412 5.946206 -0.191484
v 2.441383 5.934325 -0.191484
v 2.255398 6.100689 0.130815
v 2.627368 5.928382 0.130815
v 2.441383 5.934325 0.453115
v 2.069412 5.946206 0.453116
v 1.883427 5.952147 0.130815
v -1.606726 4.458765 -0.444787
v -1.925311 3.875447 -0.444787
v -1.766018 4.167107 0.130815
v -2.084603 3.583788 0.130815
v -1.925311 3.875447 0.706417
v -1.606726 4.458765 0.706417
v -1.447434 4.750425 0.130815
vt 0.578125 0.020934
vt 0.421875 0.020934
vt 0.343750 0.156250
vt 0.421875 0.291566
vt 0.578125 0.291566
vt 0.656250 0.156250
vt 0.375000 0.312500
vt 0.416667 0.312500
vt 0.458333 0.312500
vt 0.500000 0.312500
vt 0.541667 0.312500
vt 0.583333 0.312500
vt 0.625000 0.312500
vt 0.375000 0.688440
vt 0.416667 0.688440
vt 0.458333 0.688440
vt 0.500000 0.688440
vt 0.541667 0.688440
vt 0.583333 0.688440
vt 0.625000 0.688440
vt 0.578125 0.708434
vt 0.421875 0.708434
vt 0.343750 0.843750
vt 0.421875 0.979066
vt 0.578125 0.979066
vt 0.656250 0.843750
vt 0.500000 0.150000
vt 0.500000 0.837500
vt 0.421875 0.020934
vt 0.578125 0.020934
vt 0.343750 0.156250
vt 0.421875 0.291566
vt 0.578125 0.291566
vt 0.656250 0.156250
vt 0.421875 0.020934
vt 0.578125 0.020934
vt 0.343750 0.156250
vt 0.421875 0.291566
vt 0.578125 0.291566
vt 0.656250 0.156250
vt 0.421875 0.020934
vt 0.578125 0.020934
vt 0.343750 0.156250
vt 0.421875 0.291566
vt 0.578125 0.291566
vt 0.656250 0.156250
vt 0.421875 0.020934
vt 0.578125 0.020934
vt 0.343750 0.156250
vt 0.421875 0.291566
vt 0.578125 0.291566
vt 0.656250 0.156250
vt 0.421875 0.020934
vt 0.578125 0.020934
vt 0.343750 0.156250
vt 0.421875 0.291566
vt 0.578125 0.291566
vt 0.656250 0.156250
vt 0.421875 0.020934
vt 0.578125 0.020934
vt 0.343750 0.156250
vt 0.421875 0.291566
vt 0.578125 0.291566
vt 0.656250 0.156250
vt 0.578125 0.979066
vt 0.421875 0.979066
vt 0.343750 0.843750
vt 0.421875 0.708434
vt 0.578125 0.708434
vt 0.656250 0.843750
vn 0.030895 0.488171 -0.872201
vn -0.053445 -0.511227 -0.857783
vn -0.088956 -0.537537 -0.838535
vn 0.063031 0.448190 -0.891714
vn -0.097912 -0.995195 -0.000000
vn -0.155871 -0.987777 -0.000000
vn -0.053445 -0.511227 0.857782
vn -0.088956 -0.537538 0.838534
vn 0.030895 0.488171 0.872201
vn 0.063031 0.448190 0.891714
vn 0.072019 0.997403 -0.000000
vn 0.147074 0.989125 -0.000000
vn 0.475604 0.501642 -0.722604
vn -0.397787 0.530801 -0.748342
vn 0.043922 0.999035 -0.000000
vn 0.847782 0.530345 -0.000001
vn 0.475605 0.501642 0.722603
vn -0.397787 0.530801 0.748342
vn -0.810571 0.585640 0.000001
vn -0.507475 0.609673 -0.608908
vn -0.634876 -0.211830 -0.743008
vn -0.877636 0.479329 -0.000000
vn -0.748826 -0.662767 -0.000000
vn -0.634876 -0.211830 0.743008
vn -0.507475 0.609673 0.608908
vn -0.535207 0.844721 -0.000000
vn -0.065830 0.366850 -0.927948
vn 0.110200 -0.570899 -0.813591
vn 0.136881 -0.990588 -0.000000
vn 0.110200 -0.570899 0.813591
vn -0.065829 0.366850 0.927948
vn -0.326216 0.945295 0.000000
vn -0.142127 0.217258 -0.965712
vn 0.569126 -0.441715 -0.693529
vn 0.727380 -0.686235 0.000000
vn 0.569127 -0.441715 0.693528
vn -0.142127 0.217258 0.965711
vn -0.848235 0.529620 0.000000
vn -0.300248 0.211860 -0.930036
vn 0.599127 -0.199752 -0.775336
vn 0.889770 -0.456410 -0.000000
vn 0.599280 -0.200008 0.775152
vn -0.301183 0.213229 0.929420
vn -0.967088 0.254372 0.005970
vn -0.422887 0.073058 -0.903232
vn 0.645414 -0.017382 -0.763635
vn 0.994906 -0.100803 -0.000000
vn 0.647401 -0.017708 0.761944
vn -0.420840 0.074035 0.904109
vn -0.995283 0.096792 0.006551
vn -0.398827 0.128953 -0.907914
vn 0.579856 0.045760 -0.813433
vn 0.999985 0.005408 -0.000000
vn 0.582125 0.045939 0.811800
vn -0.402072 0.126922 0.906768
vn -0.983249 0.182236 0.003458
s 1
g pCylinder3
usemtl initialShadingGroup
f 27/49/27 28/50/28 34/57/29 33/56/30
f 28/50/28 29/51/31 35/58/32 34/57/29
f 29/51/31 30/52/33 36/59/34 35/58/32
f 30/52/33 31/53/35 37/60/36 36/59/34
f 31/53/35 32/54/37 38/61/38 37/60/36
f 32/54/37 27/55/27 33/62/30 38/61/38
f 70/101/39 69/102/40 71/69/41
f 72/103/42 70/101/39 71/69/41
f 73/104/43 72/103/42 71/69/41
f 74/105/44 73/104/43 71/69/41
f 75/106/45 74/105/44 71/69/41
f 69/102/40 75/106/45 71/69/41
f 76/107/46 77/108/47 78/70/48
f 77/108/47 79/109/49 78/70/48
f 79/109/49 80/110/50 78/70/48
f 80/110/50 81/111/51 78/70/48
f 81/111/51 82/112/52 78/70/48
f 82/112/52 76/107/46 78/70/48
f 28/44/28 27/43/27 39/72/53 40/71/54
f 29/45/31 28/44/28 40/71/54 41/73/55
f 30/46/33 29/45/31 41/73/55 42/74/56
f 31/47/35 30/46/33 42/74/56 43/75/57
f 32/48/37 31/47/35 43/75/57 44/76/58
f 27/43/27 32/48/37 44/76/58 39/72/53
f 40/71/54 39/72/53 45/78/59 46/77/60
f 41/73/55 40/71/54 46/77/60 47/79/61
f 42/74/56 41/73/55 47/79/61 48/80/62
f 43/75/57 42/74/56 48/80/62 49/81/63
f 44/76/58 43/75/57 49/81/63 50/82/64
f 39/72/53 44/76/58 50/82/64 45/78/59
f 46/77/60 45/78/59 51/84/65 52/83/66
f 47/79/61 46/77/60 52/83/66 53/85/67
f 48/80/62 47/79/61 53/85/67 54/86/68
f 49/81/63 48/80/62 54/86/68 55/87/69
f 50/82/64 49/81/63 55/87/69 56/88/70
f 45/78/59 50/82/64 56/88/70 51/84/65
f 52/83/66 51/84/65 57/90/71 58/89/72
f 53/85/67 52/83/66 58/89/72 59/91/73
f 54/86/68 53/85/67 59/91/73 60/92/74
f 55/87/69 54/86/68 60/92/74 61/93/75
f 56/88/70 55/87/69 61/93/75 62/94/76
f 51/84/65 56/88/70 62/94/76 57/90/71
f 58/89/72 57/90/71 63/96/77 64/95/78
f 59/91/73 58/89/72 64/95/78 65/97/79
f 60/92/74 59/91/73 65/97/79 66/98/80
f 61/93/75 60/92/74 66/98/80 67/99/81
f 62/94/76 61/93/75 67/99/81 68/100/82
f 57/90/71 62/94/76 68/100/82 63/96/77
f 64/95/78 63/96/77 69/102/40 70/101/39
f 65/97/79 64/95/78 70/101/39 72/103/42
f 66/98/80 65/97/79 72/103/42 73/104/43
f 67/99/81 66/98/80 73/104/43 74/105/44
f 68/100/82 67/99/81 74/105/44 75/106/45
f 63/96/77 68/100/82 75/106/45 69/102/40
f 33/67/30 34/66/29 77/108/47 76/107/46
f 34/66/29 35/65/32 79/109/49 77/108/47
f 35/65/32 36/64/34 80/110/50 79/109/49
f 36/64/34 37/63/36 81/111/51 80/110/50
f 37/63/36 38/68/38 82/112/52 81/111/51
f 38/68/38 33/67/30 76/107/46 82/112/52
